HIERARCHY
ROOT mixamorig:Hips
{
	OFFSET -0.000008 104.274872 1.554316
	CHANNELS 6 Xposition Yposition Zposition Xrotation Yrotation Zrotation
	JOINT mixamorig:Spine
	{
		OFFSET -0.000005 10.181595 0.131519
		CHANNELS 6 Xposition Yposition Zposition Xrotation Yrotation Zrotation
		JOINT mixamorig:Spine1
		{
			OFFSET -0.000000 9.893959 -1.470707
			CHANNELS 6 Xposition Yposition Zposition Xrotation Yrotation Zrotation
			JOINT mixamorig:Spine2
			{
				OFFSET -0.000000 9.220757 -1.370641
				CHANNELS 6 Xposition Yposition Zposition Xrotation Yrotation Zrotation
				JOINT mixamorig:Neck
				{
					OFFSET 0.000001 16.740417 -2.049036
					CHANNELS 6 Xposition Yposition Zposition Xrotation Yrotation Zrotation
					JOINT mixamorig:Head
					{
						OFFSET 0.000000 9.617874 1.685006
						CHANNELS 6 Xposition Yposition Zposition Xrotation Yrotation Zrotation
						JOINT mixamorig:HeadTop_End
						{
							OFFSET 0.000002 22.037354 7.501101
							CHANNELS 6 Xposition Yposition Zposition Xrotation Yrotation Zrotation
							End Site
							{
								OFFSET 0.000168 2310.654297 -282.823242
							}
						}
					}
				}
				JOINT mixamorig:RightShoulder
				{
					OFFSET -4.569970 11.014908 -2.160885
					CHANNELS 6 Xposition Yposition Zposition Xrotation Yrotation Zrotation
					JOINT mixamorig:RightArm
					{
						OFFSET -10.592851 -0.524811 -2.232101
						CHANNELS 6 Xposition Yposition Zposition Xrotation Yrotation Zrotation
						JOINT mixamorig:RightForeArm
						{
							OFFSET -27.841511 0.000031 -0.000004
							CHANNELS 6 Xposition Yposition Zposition Xrotation Yrotation Zrotation
							JOINT mixamorig:RightHand
							{
								OFFSET -28.328831 -0.000015 0.000015
								CHANNELS 6 Xposition Yposition Zposition Xrotation Yrotation Zrotation
								JOINT mixamorig:RightHandThumb1
								{
									OFFSET -2.464806 -1.573990 2.681852
									CHANNELS 6 Xposition Yposition Zposition Xrotation Yrotation Zrotation
									JOINT mixamorig:RightHandThumb2
									{
										OFFSET -3.215179 -1.872803 1.924282
										CHANNELS 6 Xposition Yposition Zposition Xrotation Yrotation Zrotation
										JOINT mixamorig:RightHandThumb3
										{
											OFFSET -2.654831 -1.527969 1.512609
											CHANNELS 6 Xposition Yposition Zposition Xrotation Yrotation Zrotation
											JOINT mixamorig:RightHandThumb4
											{
												OFFSET -2.018814 -1.152008 1.108052
												CHANNELS 6 Xposition Yposition Zposition Xrotation Yrotation Zrotation
												End Site
												{
													OFFSET -188.809540 -114.533607 132.431396
												}
											}
										}
									}
								}
								JOINT mixamorig:RightHandIndex1
								{
									OFFSET -9.108284 -0.517868 2.259835
									CHANNELS 6 Xposition Yposition Zposition Xrotation Yrotation Zrotation
									JOINT mixamorig:RightHandIndex2
									{
										OFFSET -3.699989 0.000000 0.001215
										CHANNELS 6 Xposition Yposition Zposition Xrotation Yrotation Zrotation
										JOINT mixamorig:RightHandIndex3
										{
											OFFSET -2.850006 0.000031 -0.000522
											CHANNELS 6 Xposition Yposition Zposition Xrotation Yrotation Zrotation
											JOINT mixamorig:RightHandIndex4
											{
												OFFSET -2.772186 -0.000015 -0.000020
												CHANNELS 6 Xposition Yposition Zposition Xrotation Yrotation Zrotation
												End Site
												{
													OFFSET -277.218445 0.000000 -0.050231
												}
											}
										}
									}
								}
								JOINT mixamorig:RightHandMiddle1
								{
									OFFSET -9.532516 -0.000031 -0.000023
									CHANNELS 6 Xposition Yposition Zposition Xrotation Yrotation Zrotation
									JOINT mixamorig:RightHandMiddle2
									{
										OFFSET -3.700005 -0.000015 0.003713
										CHANNELS 6 Xposition Yposition Zposition Xrotation Yrotation Zrotation
										JOINT mixamorig:RightHandMiddle3
										{
											OFFSET -2.949974 0.000015 -0.002054
											CHANNELS 6 Xposition Yposition Zposition Xrotation Yrotation Zrotation
											JOINT mixamorig:RightHandMiddle4
											{
												OFFSET -2.946640 0.000000 -0.000156
												CHANNELS 6 Xposition Yposition Zposition Xrotation Yrotation Zrotation
												End Site
												{
													OFFSET -294.664337 0.000000 -0.113670
												}
											}
										}
									}
								}
								JOINT mixamorig:RightHandRing1
								{
									OFFSET -9.103600 -0.043076 -1.865134
									CHANNELS 6 Xposition Yposition Zposition Xrotation Yrotation Zrotation
									JOINT mixamorig:RightHandRing2
									{
										OFFSET -3.379288 0.000000 -0.001055
										CHANNELS 6 Xposition Yposition Zposition Xrotation Yrotation Zrotation
										JOINT mixamorig:RightHandRing3
										{
											OFFSET -2.889687 -0.000015 0.000379
											CHANNELS 6 Xposition Yposition Zposition Xrotation Yrotation Zrotation
											JOINT mixamorig:RightHandRing4
											{
												OFFSET -2.638809 -0.000015 0.000941
												CHANNELS 6 Xposition Yposition Zposition Xrotation Yrotation Zrotation
												End Site
												{
													OFFSET -263.880371 0.000000 0.516020
												}
											}
										}
									}
								}
								JOINT mixamorig:RightHandPinky1
								{
									OFFSET -8.076683 -0.486710 -3.806280
									CHANNELS 6 Xposition Yposition Zposition Xrotation Yrotation Zrotation
									JOINT mixamorig:RightHandPinky2
									{
										OFFSET -3.600014 -0.000015 -0.003747
										CHANNELS 6 Xposition Yposition Zposition Xrotation Yrotation Zrotation
										JOINT mixamorig:RightHandPinky3
										{
											OFFSET -2.099983 0.000000 -0.005739
											CHANNELS 6 Xposition Yposition Zposition Xrotation Yrotation Zrotation
											JOINT mixamorig:RightHandPinky4
											{
												OFFSET -2.115768 -0.000031 -0.003680
												CHANNELS 6 Xposition Yposition Zposition Xrotation Yrotation Zrotation
												End Site
												{
													OFFSET -211.577087 0.000000 -0.350686
												}
											}
										}
									}
								}
							}
						}
					}
				}
				JOINT mixamorig:LeftShoulder
				{
					OFFSET 4.570447 11.014725 -2.160855
					CHANNELS 6 Xposition Yposition Zposition Xrotation Yrotation Zrotation
					JOINT mixamorig:LeftArm
					{
						OFFSET 10.592371 -0.524597 -2.232119
						CHANNELS 6 Xposition Yposition Zposition Xrotation Yrotation Zrotation
						JOINT mixamorig:LeftForeArm
						{
							OFFSET 27.841532 -0.000031 0.000026
							CHANNELS 6 Xposition Yposition Zposition Xrotation Yrotation Zrotation
							JOINT mixamorig:LeftHand
							{
								OFFSET 28.328846 -0.000061 0.000022
								CHANNELS 6 Xposition Yposition Zposition Xrotation Yrotation Zrotation
								JOINT mixamorig:LeftHandThumb1
								{
									OFFSET 2.466141 -1.576172 2.681732
									CHANNELS 6 Xposition Yposition Zposition Xrotation Yrotation Zrotation
									JOINT mixamorig:LeftHandThumb2
									{
										OFFSET 3.217812 -1.872070 1.916482
										CHANNELS 6 Xposition Yposition Zposition Xrotation Yrotation Zrotation
										JOINT mixamorig:LeftHandThumb3
										{
											OFFSET 2.656029 -1.528778 1.514513
											CHANNELS 6 Xposition Yposition Zposition Xrotation Yrotation Zrotation
											JOINT mixamorig:LeftHandThumb4
											{
												OFFSET 2.020889 -1.154053 1.115139
												CHANNELS 6 Xposition Yposition Zposition Xrotation Yrotation Zrotation
												End Site
												{
													OFFSET 190.885437 -115.081749 130.048782
												}
											}
										}
									}
								}
								JOINT mixamorig:LeftHandIndex1
								{
									OFFSET 9.109314 -0.518021 2.259871
									CHANNELS 6 Xposition Yposition Zposition Xrotation Yrotation Zrotation
									JOINT mixamorig:LeftHandIndex2
									{
										OFFSET 3.699989 0.000000 -0.000322
										CHANNELS 6 Xposition Yposition Zposition Xrotation Yrotation Zrotation
										JOINT mixamorig:LeftHandIndex3
										{
											OFFSET 2.850006 0.000000 0.000352
											CHANNELS 6 Xposition Yposition Zposition Xrotation Yrotation Zrotation
											JOINT mixamorig:LeftHandIndex4
											{
												OFFSET 2.774864 -0.000031 -0.000027
												CHANNELS 6 Xposition Yposition Zposition Xrotation Yrotation Zrotation
												End Site
												{
													OFFSET 277.486267 0.000000 -0.009857
												}
											}
										}
									}
								}
								JOINT mixamorig:LeftHandMiddle1
								{
									OFFSET 9.533394 0.000061 0.000044
									CHANNELS 6 Xposition Yposition Zposition Xrotation Yrotation Zrotation
									JOINT mixamorig:LeftHandMiddle2
									{
										OFFSET 3.699989 -0.000015 -0.000231
										CHANNELS 6 Xposition Yposition Zposition Xrotation Yrotation Zrotation
										JOINT mixamorig:LeftHandMiddle3
										{
											OFFSET 2.949997 -0.000015 -0.000059
											CHANNELS 6 Xposition Yposition Zposition Xrotation Yrotation Zrotation
											JOINT mixamorig:LeftHandMiddle4
											{
												OFFSET 2.952896 0.000031 0.000063
												CHANNELS 6 Xposition Yposition Zposition Xrotation Yrotation Zrotation
												End Site
												{
													OFFSET 295.289337 0.000000 0.022810
												}
											}
										}
									}
								}
								JOINT mixamorig:LeftHandRing1
								{
									OFFSET 9.104523 -0.042999 -1.865074
									CHANNELS 6 Xposition Yposition Zposition Xrotation Yrotation Zrotation
									JOINT mixamorig:LeftHandRing2
									{
										OFFSET 3.150009 -0.000031 0.000043
										CHANNELS 6 Xposition Yposition Zposition Xrotation Yrotation Zrotation
										JOINT mixamorig:LeftHandRing3
										{
											OFFSET 2.949982 -0.000015 0.000040
											CHANNELS 6 Xposition Yposition Zposition Xrotation Yrotation Zrotation
											JOINT mixamorig:LeftHandRing4
											{
												OFFSET 2.644348 0.000000 0.000057
												CHANNELS 6 Xposition Yposition Zposition Xrotation Yrotation Zrotation
												End Site
												{
													OFFSET 264.434631 0.000000 0.012105
												}
											}
										}
									}
								}
								JOINT mixamorig:LeftHandPinky1
								{
									OFFSET 8.077789 -0.486847 -3.806259
									CHANNELS 6 Xposition Yposition Zposition Xrotation Yrotation Zrotation
									JOINT mixamorig:LeftHandPinky2
									{
										OFFSET 3.599953 0.000031 0.014727
										CHANNELS 6 Xposition Yposition Zposition Xrotation Yrotation Zrotation
										JOINT mixamorig:LeftHandPinky3
										{
											OFFSET 2.100021 0.000015 0.007705
											CHANNELS 6 Xposition Yposition Zposition Xrotation Yrotation Zrotation
											JOINT mixamorig:LeftHandPinky4
											{
												OFFSET 2.125504 0.000031 0.007517
												CHANNELS 6 Xposition Yposition Zposition Xrotation Yrotation Zrotation
												End Site
												{
													OFFSET 212.550781 0.000000 0.625752
												}
											}
										}
									}
								}
							}
						}
					}
				}
			}
		}
	}
	JOINT mixamorig:RightUpLeg
	{
		OFFSET -8.207787 -6.751648 -1.599560
		CHANNELS 6 Xposition Yposition Zposition Xrotation Yrotation Zrotation
		JOINT mixamorig:RightLeg
		{
			OFFSET -0.000002 -44.370117 0.345942
			CHANNELS 6 Xposition Yposition Zposition Xrotation Yrotation Zrotation
			JOINT mixamorig:RightFoot
			{
				OFFSET 0.000003 -44.423679 -3.043532
				CHANNELS 6 Xposition Yposition Zposition Xrotation Yrotation Zrotation
				JOINT mixamorig:RightToeBase
				{
					OFFSET -0.000002 -8.728671 10.710558
					CHANNELS 6 Xposition Yposition Zposition Xrotation Yrotation Zrotation
					JOINT mixamorig:RightToe_End
					{
						OFFSET -0.000001 -0.000679 9.278119
						CHANNELS 6 Xposition Yposition Zposition Xrotation Yrotation Zrotation
						End Site
						{
							OFFSET 0.000000 -0.067690 927.812134
						}
					}
				}
			}
		}
	}
	JOINT mixamorig:LeftUpLeg
	{
		OFFSET 8.207793 -6.751686 -1.599556
		CHANNELS 6 Xposition Yposition Zposition Xrotation Yrotation Zrotation
		JOINT mixamorig:LeftLeg
		{
			OFFSET -0.000004 -44.370014 0.346954
			CHANNELS 6 Xposition Yposition Zposition Xrotation Yrotation Zrotation
			JOINT mixamorig:LeftFoot
			{
				OFFSET -0.000001 -44.423672 -3.044401
				CHANNELS 6 Xposition Yposition Zposition Xrotation Yrotation Zrotation
				JOINT mixamorig:LeftToeBase
				{
					OFFSET -0.000002 -8.728669 10.710558
					CHANNELS 6 Xposition Yposition Zposition Xrotation Yrotation Zrotation
					JOINT mixamorig:LeftToe_End
					{
						OFFSET -0.000003 -0.000679 9.278133
						CHANNELS 6 Xposition Yposition Zposition Xrotation Yrotation Zrotation
						End Site
						{
							OFFSET 0.000000 -0.068021 927.813477
						}
					}
				}
			}
		}
	}
}
MOTION
Frames: 3
Frame Time: 0.033333
0.000006 104.270477 1.554256 0.000010 0.000003 -0.000113 -0.000005 10.181587 0.131522 0.000001 -0.000003 0.000084 -0.000000 9.893967 -1.470711 0.000001 0.000000 -0.000000 -0.000000 9.220802 -1.370642 0.000000 -0.000000 -0.000000 0.000001 16.740433 -2.049030 0.000000 -0.000000 -0.000000 0.000000 9.617859 1.685014 0.000000 0.000000 0.000000 0.000002 22.037384 7.501101 0.000000 -0.000000 0.000000 -4.569968 11.014880 -2.160881 0.000008 0.000001 -0.000038 -10.592871 -0.524776 -2.231898 75.368453 31.700493 -24.739717 -27.841515 0.000031 0.000545 -50.990101 107.726987 66.295189 -28.328825 0.000021 0.000026 -0.000320 -0.000042 0.000005 -2.464405 -1.573866 2.682357 -39.448068 -156.422247 8.597061 -3.215273 -1.872548 1.924630 151.449473 32.622080 13.952993 -2.654953 -1.527892 1.513080 146.482942 27.153887 -35.728405 -2.018830 -1.151997 1.108064 -0.000001 -0.000005 0.000000 -9.108371 -0.517548 2.260138 101.397949 16.088903 -19.649710 -3.700069 0.000297 0.001523 98.056689 15.843787 -18.179030 -2.850110 0.000357 -0.000245 98.171231 13.212239 -15.221536 -2.772172 0.000001 -0.000019 0.000001 0.000001 0.000001 -9.532585 0.000287 0.000257 98.822414 13.268647 -15.623124 -3.700067 0.000326 0.003991 96.825540 12.604497 -14.080718 -2.950064 0.000337 -0.001785 96.209239 11.908226 -13.254604 -2.946618 0.000001 -0.000152 0.000001 0.000002 0.000000 -9.103701 -0.042763 -1.864873 97.515833 15.280223 -17.347878 -3.379314 0.000337 -0.000796 97.311126 8.481906 -9.653959 -2.889753 0.000368 0.000660 99.467300 6.012197 -7.148309 -2.638798 -0.000000 0.000939 0.000001 -0.000001 -0.000001 -8.076742 -0.486368 -3.806004 90.803137 15.656826 -15.724491 -3.600046 0.000278 -0.003500 92.993695 5.804065 -5.754256 -2.099976 0.000340 -0.005501 93.274368 2.507063 -2.432987 -2.115769 -0.000043 -0.003685 -0.000001 0.000002 -0.000003 4.570446 11.014691 -2.160851 -0.000018 0.000010 -0.000021 10.592420 -0.524465 -2.232365 73.934544 -19.286658 14.575904 27.841827 0.000056 -0.000205 -72.807283 -106.586195 -89.366004 28.328846 -0.000044 0.000015 0.000024 -0.000089 0.000000 2.466117 -1.576150 2.681905 -24.542932 157.633594 -39.998414 3.217803 -1.871753 1.916369 158.337322 -29.780697 8.177386 2.656106 -1.528646 1.514466 140.756047 -27.573660 46.807706 2.020891 -1.154074 1.115149 -0.000001 0.000002 0.000002 9.109382 -0.517892 2.259753 76.907268 -21.618329 17.232222 3.700053 0.000093 -0.000442 69.668599 -24.095149 16.909545 2.850065 0.000122 0.000217 67.736823 -17.850681 12.033342 2.774888 -0.000048 -0.000027 0.000001 0.000001 -0.000000 9.533467 0.000165 -0.000083 73.790912 -20.029146 15.095727 3.700051 0.000128 -0.000377 76.685409 -19.894161 15.792451 2.950069 0.000122 -0.000186 74.851736 -20.871875 16.048479 2.952863 -0.000016 0.000063 0.000000 -0.000002 0.000001 9.104601 -0.042898 -1.865206 72.438657 -18.668119 13.730354 3.150052 0.000165 -0.000100 78.336088 -15.201360 12.409797 2.950015 0.000144 -0.000059 78.813307 -15.108915 12.438434 2.644323 0.000031 0.000055 -0.000000 -0.000002 0.000001 8.077837 -0.486753 -3.806410 67.051714 -18.710048 12.868236 3.599988 0.000136 0.014580 68.410519 -13.727184 9.709932 2.100039 0.000158 0.007544 71.553943 -12.242116 9.191105 2.125520 -0.000014 0.007521 0.000003 -0.000002 -0.000000 -8.207786 -6.751667 -1.599560 -0.077001 -0.000003 0.000080 -0.000002 -44.370110 0.345938 0.153719 -0.000000 -0.000000 0.000000 -44.423679 -3.043532 -0.076700 0.000000 -0.000002 -0.000006 -8.728667 10.710559 -0.000009 -0.000000 -0.000000 -0.000001 -0.000679 9.278123 0.000000 -0.000000 -0.000000 8.207792 -6.751710 -1.599556 -0.074518 -0.000003 0.000081 -0.000002 -44.370014 0.346960 0.148822 0.000002 0.000000 -0.000001 -44.423664 -3.044403 -0.074314 0.000000 -0.000002 -0.000004 -8.728671 10.710558 0.000007 -0.000000 -0.000000 0.000000 -0.000680 9.278137 -0.000000 0.000000 -0.000001 
0.000006 104.270477 1.554256 0.000010 0.000003 -0.000113 -0.000005 10.181587 0.131522 0.000001 -0.000003 0.000084 -0.000000 9.893967 -1.470711 0.000001 0.000000 -0.000000 -0.000000 9.220802 -1.370642 0.000000 -0.000000 -0.000000 0.000001 16.740433 -2.049030 0.000000 -0.000000 -0.000000 0.000000 9.617859 1.685014 0.000000 0.000000 0.000000 0.000002 22.037384 7.501101 0.000000 -0.000000 0.000000 -4.569968 11.014880 -2.160881 0.000008 0.000001 -0.000038 -10.592857 -0.524807 -2.231833 75.699936 41.695931 -32.970013 -27.841530 -0.000005 0.000570 -47.775216 104.441891 59.486262 -28.328812 0.000023 0.000036 -0.000320 -0.000046 0.000006 -2.464412 -1.573750 2.682324 -49.425247 -164.194278 -13.944817 -3.215270 -1.872545 1.924639 150.410601 32.420087 14.031805 -2.654951 -1.527892 1.513067 146.580941 27.632379 -30.232459 -2.018823 -1.151999 1.108056 -0.000000 -0.000001 0.000004 -9.108381 -0.517549 2.260157 102.663481 17.323270 -21.614566 -3.700074 0.000315 0.001517 99.452479 14.414657 -16.949905 -2.850091 0.000370 -0.000246 98.762008 12.034814 -14.012288 -2.772172 0.000001 -0.000020 -0.000000 0.000001 0.000000 -9.532614 0.000267 0.000272 98.078170 17.740713 -20.549338 -3.700061 0.000301 0.003991 98.110784 13.022308 -14.878642 -2.950074 0.000330 -0.001786 100.212235 12.164537 -14.519811 -2.946640 0.000001 -0.000153 -0.000000 -0.000001 0.000000 -9.103704 -0.042763 -1.864833 96.603361 19.568004 -21.858122 -3.379344 0.000310 -0.000780 96.875612 10.100560 -11.403317 -2.889753 0.000355 0.000676 103.106036 7.087933 -8.978553 -2.638800 -0.000015 0.000945 0.000000 0.000002 -0.000001 -8.076769 -0.486401 -3.805995 89.378018 21.464742 -21.083735 -3.600056 0.000284 -0.003519 91.463056 10.585815 -10.484148 -2.100003 0.000321 -0.005474 94.495797 5.761526 -5.993822 -2.115783 -0.000056 -0.003680 0.000002 0.000000 -0.000003 4.570446 11.014691 -2.160851 -0.000018 0.000010 -0.000021 10.592440 -0.524458 -2.232391 73.767156 -27.636170 20.913846 27.841827 0.000031 -0.000192 -72.059097 -104.453427 -86.370017 28.328838 -0.000028 0.000020 0.000024 -0.000091 0.000000 2.466211 -1.576110 2.681847 -2.145502 164.961827 -84.990127 3.217839 -1.871770 1.916398 164.966813 -25.736633 25.250911 2.656099 -1.528675 1.514484 142.483033 -26.332148 58.367259 2.020895 -1.154064 1.115139 -0.000001 0.000006 0.000004 9.109400 -0.517903 2.259748 74.863743 -24.067203 18.523978 3.700050 0.000106 -0.000444 73.576034 -17.468648 13.120683 2.850054 0.000165 0.000209 72.731502 -13.808821 10.189578 2.774888 -0.000031 -0.000025 -0.000000 -0.000001 -0.000000 9.533468 0.000165 -0.000086 74.257113 -21.627468 16.449599 3.700052 0.000151 -0.000386 76.521027 -14.771853 11.671791 2.950057 0.000140 -0.000210 75.473891 -14.523528 11.266533 2.952881 -0.000030 0.000063 0.000000 -0.000002 -0.000000 9.104599 -0.042894 -1.865217 74.398006 -20.936406 15.967686 3.150025 0.000163 -0.000102 77.865516 -13.466625 10.897817 2.950009 0.000157 -0.000075 78.423057 -11.319393 9.247146 2.644317 0.000030 0.000056 -0.000001 -0.000002 0.000000 8.077840 -0.486761 -3.806397 68.217081 -21.022158 14.752876 3.600003 0.000146 0.014580 68.616285 -15.580493 11.031048 2.100024 0.000157 0.007543 71.968003 -12.045722 9.116599 2.125504 -0.000031 0.007514 -0.000001 -0.000004 0.000000 -8.207786 -6.751667 -1.599560 -0.077001 -0.000003 0.000080 -0.000002 -44.370110 0.345938 0.153719 -0.000000 -0.000000 0.000000 -44.423679 -3.043532 -0.076700 0.000000 -0.000002 -0.000006 -8.728667 10.710559 -0.000009 -0.000000 -0.000000 -0.000001 -0.000679 9.278123 0.000000 -0.000000 -0.000000 8.207792 -6.751710 -1.599556 -0.074518 -0.000003 0.000081 -0.000002 -44.370014 0.346960 0.148822 0.000002 0.000000 -0.000001 -44.423664 -3.044403 -0.074314 0.000000 -0.000002 -0.000004 -8.728671 10.710558 0.000007 -0.000000 -0.000000 0.000000 -0.000680 9.278137 -0.000000 0.000000 -0.000001 
0.000006 104.270477 1.554256 0.000010 0.000003 -0.000113 -0.000005 10.181587 0.131522 0.000001 -0.000003 0.000084 -0.000000 9.893967 -1.470711 0.000001 0.000000 -0.000000 -0.000000 9.220802 -1.370642 0.000000 -0.000000 -0.000000 0.000001 16.740433 -2.049030 0.000000 -0.000000 -0.000000 0.000000 9.617859 1.685014 0.000000 0.000000 0.000000 0.000002 22.037384 7.501101 0.000000 -0.000000 0.000000 -4.569968 11.014880 -2.160881 0.000008 0.000001 -0.000038 -10.592849 -0.524809 -2.231824 75.513752 43.791874 -34.579930 -27.841518 -0.000002 0.000554 -47.394614 103.228576 57.977630 -28.328831 -0.000005 0.000027 -0.000320 -0.000045 0.000008 -2.464387 -1.573811 2.682332 -43.723856 -157.890368 -0.617991 -3.215265 -1.872561 1.924642 153.281234 32.204137 8.822640 -2.654952 -1.527877 1.513075 146.476658 27.191910 -35.321237 -2.018819 -1.151992 1.108066 -0.000005 -0.000003 0.000002 -9.108383 -0.517566 2.260146 103.805263 18.052996 -22.968328 -3.700091 0.000288 0.001544 100.171964 14.710761 -17.515503 -2.850094 0.000369 -0.000237 99.288110 11.415427 -13.415864 -2.772179 -0.000000 -0.000027 0.000000 -0.000000 0.000000 -9.532591 0.000263 0.000260 97.836900 16.969648 -19.584758 -3.700078 0.000329 0.003993 98.063089 12.242638 -13.972800 -2.950050 0.000350 -0.001777 99.219050 10.810988 -12.684559 -2.946629 -0.000000 -0.000157 -0.000000 -0.000001 -0.000001 -9.103686 -0.042767 -1.864839 97.433017 17.813231 -20.189129 -3.379333 0.000305 -0.000782 99.962305 9.814271 -11.697142 -2.889745 0.000355 0.000687 104.742536 6.701080 -8.744708 -2.638811 -0.000018 0.000946 -0.000001 0.000001 0.000001 -8.076746 -0.486398 -3.805992 90.713061 19.711410 -19.797529 -3.600054 0.000286 -0.003474 97.661316 9.464751 -10.404829 -2.100004 0.000328 -0.005432 101.494364 5.060290 -5.924559 -2.115774 -0.000040 -0.003679 -0.000000 -0.000000 -0.000004 4.570446 11.014691 -2.160851 -0.000018 0.000010 -0.000021 10.592443 -0.524472 -2.232390 72.786259 -27.962960 20.798664 27.841816 0.000029 -0.000178 -70.538806 -103.905100 -84.206834 28.328817 -0.000028 0.000022 0.000020 -0.000089 -0.000000 2.466264 -1.576056 2.681828 7.456903 169.633321 -102.292854 3.217865 -1.871801 1.916414 167.347967 -23.023162 33.854051 2.656099 -1.528661 1.514520 142.974314 -25.919736 61.374693 2.020902 -1.154075 1.115148 0.000001 0.000003 0.000004 9.109385 -0.517899 2.259744 76.278931 -23.417970 18.475778 3.700051 0.000112 -0.000466 76.409982 -16.344228 12.911122 2.850067 0.000153 0.000212 75.233830 -12.593870 9.719377 2.774880 -0.000030 -0.000024 0.000000 0.000002 -0.000000 9.533461 0.000170 -0.000081 75.903489 -21.379611 16.743087 3.700056 0.000146 -0.000389 78.751712 -13.518813 11.109502 2.950063 0.000143 -0.000210 77.635816 -13.356128 10.765052 2.952872 -0.000015 0.000062 0.000000 -0.000001 0.000001 9.104599 -0.042891 -1.865232 76.240921 -20.709113 16.319629 3.150054 0.000158 -0.000107 79.622015 -13.753089 11.481469 2.950016 0.000139 -0.000073 80.073368 -11.438919 9.621742 2.644326 0.000030 0.000057 -0.000002 0.000000 -0.000000 8.077846 -0.486762 -3.806412 69.502168 -21.183304 15.221271 3.600022 0.000137 0.014568 70.637065 -16.865967 12.375622 2.100036 0.000158 0.007552 73.891056 -13.171461 10.296508 2.125495 -0.000015 0.007516 -0.000000 0.000003 0.000000 -8.207786 -6.751667 -1.599560 -0.077001 -0.000003 0.000080 -0.000002 -44.370110 0.345938 0.153719 -0.000000 -0.000000 0.000000 -44.423679 -3.043532 -0.076700 0.000000 -0.000002 -0.000006 -8.728667 10.710559 -0.000009 -0.000000 -0.000000 -0.000001 -0.000679 9.278123 0.000000 -0.000000 -0.000000 8.207792 -6.751710 -1.599556 -0.074518 -0.000003 0.000081 -0.000002 -44.370014 0.346960 0.148822 0.000002 0.000000 -0.000001 -44.423664 -3.044403 -0.074314 0.000000 -0.000002 -0.000004 -8.728671 10.710558 0.000007 -0.000000 -0.000000 0.000000 -0.000680 9.278137 -0.000000 0.000000 -0.000001 
